<svg width="124" height="29" viewBox="0 0 124 29" fill="none" xmlns="http://www.w3.org/2000/svg">
<path fill-rule="evenodd" clip-rule="evenodd" d="M123.952 4.95039H117.315V4.19017H123.952V4.95039ZM123.952 9.78706H117.315V9.03282H123.952V9.78706ZM123.952 14.7494H117.315V13.9952H123.952V14.7494ZM123.952 19.7836H117.315V19.0234H123.952V19.7836ZM123.952 24.6322H117.315V23.872H123.952V24.6322ZM110.184 24.6382H103.961L108.737 4.19017H114.96L110.184 24.6382ZM94.5614 24.6382L94.0022 20.6456H90.3975H84.8851L82.4907 24.6382H77.5045H76.2678L77.5045 22.7826L89.9107 4.19017H90.3975H97.5018L101.593 24.6382H94.5614ZM65.3417 24.6382H73.9589L77.4979 9.48776L78.7346 4.19616H77.4979H73.1301L69.5845 19.3766L69.5122 19.4304L65.539 4.19616H56.8297L52.6855 21.9445L52.054 24.6442H52.6855H57.6585L61.3159 8.98493H61.3751L65.3417 24.6382ZM49.6004 16.3417H39.5821L38.569 20.6755H49.4623L48.5348 24.6382H31.4187L36.1944 4.19017H52.679H53.3104L52.679 6.88386L52.3829 8.15887H41.4897L40.503 12.379H50.5214L49.6004 16.3417ZM30.5307 10.1941C32.0502 5.26765 27.6429 3.76517 23.0054 3.76517C18.3087 3.76517 13.3291 5.09406 11.9477 9.9367C11.4346 12.1455 12.1121 14.0131 14.1777 14.923C18.6047 16.8744 23.354 16.2818 22.7028 19.0593C22.3871 20.4181 20.3939 21.1005 18.9599 21.1005C16.7168 21.1005 15.4143 20.053 15.8879 18.1255H9.66511C8.46133 23.6745 12.7502 25.0692 17.9732 25.0692C23.1698 25.0692 28.3139 23.028 29.3203 18.7181C30.603 13.1991 25.209 12.8579 21.6503 11.9779C20.0913 11.5828 18.2166 11.098 18.5652 9.5955C18.802 8.57789 20.2492 7.72788 21.6766 7.72788C22.7357 7.72788 23.4922 7.95535 23.9263 8.38035C24.3868 8.80535 24.5249 9.39796 24.3144 10.1941H30.5307ZM0.416382 0V4.19616H7.04705V4.95638H0.416382V9.03282H7.04705V9.79304H0.416382V14.0012H7.04705V14.7554H0.416382V19.0294H7.04705V19.7836H0.416382V23.878H7.04705V24.6382H0.416382V28.7925H123.952V0H0.416382Z" fill="#014898"/>
</svg>
